<svg role="img" viewBox="0 0 64 64" xmlns="http://www.w3.org/2000/svg" id="Clerk--Streamline-Simple-Icons" height="64" width="64">
  <desc>
    Clerk Streamline Icon: https://streamlinehq.com
  </desc>
  <title>Clerk</title>
  <path d="m57.25333333333333 55.544 -7.682666666666666 -7.682666666666666a1.5253333333333332 1.5253333333333332 0 0 0 -1.8666666666666665 -0.224 18.27733333333333 18.27733333333333 0 0 1 -18.882666666666665 0 1.5359999999999998 1.5359999999999998 0 0 0 -1.8666666666666665 0.224l-7.682666666666666 7.682666666666666a1.5359999999999998 1.5359999999999998 0 0 0 -0.2746666666666666 1.8399999999999999 1.5199999999999998 1.5199999999999998 0 0 0 0.44266666666666665 0.496 32 32 0 0 0 37.63466666666666 0 1.5466666666666664 1.5466666666666664 0 0 0 0.6373333333333333 -1.128 1.5359999999999998 1.5359999999999998 0 0 0 -0.4586666666666666 -1.208Zm0.005333333333333333 -47.114666666666665 -7.68 7.68a1.5173333333333332 1.5173333333333332 0 0 1 -1.869333333333333 0.224A18.285333333333334 18.285333333333334 0 0 0 23.264 21.546666666666667a18.298666666666666 18.298666666666666 0 0 0 -3.2586666666666666 9.845333333333333 18.293333333333333 18.293333333333333 0 0 0 2.6079999999999997 10.037333333333333 1.5279999999999998 1.5279999999999998 0 0 1 -0.22133333333333333 1.8639999999999999l-7.682666666666666 7.68a1.5119999999999998 1.5119999999999998 0 0 1 -2.304 -0.16799999999999998A31.981333333333332 31.981333333333332 0 0 1 18.055999999999997 7.2a31.973333333333333 31.973333333333333 0 0 1 39.032 -1.08 1.5093333333333332 1.5093333333333332 0 0 1 0.6186666666666667 1.1146666666666665 1.5199999999999998 1.5199999999999998 0 0 1 -0.448 1.1946666666666665Zm-18.981333333333332 32.696a9.138666666666666 9.138666666666666 0 1 0 0 -18.27733333333333 9.138666666666666 9.138666666666666 0 0 0 0 18.27733333333333Z" fill="#000000" stroke-width="2.6667"></path>
</svg>